# xmcd
#
# Track frame offsets:
#	150
#	22942
#	40732
#	66327
#	86272
#	116459
#	139086
#	171109
#	192147
#	226296
#	246529
#	311537
#
# Disc length: 4426 seconds
#
# Revision: 16
# Processed by: cddbd v1.5.2PL0 Copyright (c) Steve Scherf et al.
# Submitted via: Jack! The Knife 20 Magnifico
#
DISCID=9711480c
DTITLE=Celtic Frost - Monotheist
DYEAR=2006
DGENRE=Metal
TTITLE0=Progeny
TTITLE1=Ground
TTITLE2=A Dying God Coming Into Human Flesh
TTITLE3=Drown In Ashes
TTITLE4=Os Abysmi Vel Daath
TTITLE5=Temple Of Depression
TTITLE6=Obscured
TTITLE7=Domain Of Decay
TTITLE8=Ain Elohim
TTITLE9=Totengott
TTITLE10=Synagoga Satanae
TTITLE11=Winter (Requiem, Chapter Three: Finale)
EXTD=Celtic Frost and Peter Tägtgren
EXTT0=Ain, Fischer, Sesa
EXTT1=Fischer, Unala
EXTT2=Ain, Fischer, Unala
EXTT3=Tom Fischer
EXTT4=Ain, Fischer, Sesa, Unala
EXTT5=Ain, Fischer, Unala
EXTT6=Ain, Fischer, Unala
EXTT7=Ain, Fischer, Unala
EXTT8=Ain, Fischer, Sesa, Unala
EXTT9=Ain, Fischer
EXTT10=Ain, Fischer, Sesa
EXTT11=Tom Fischer
PLAYORDER=
